<svg id="レイヤー_1" data-name="レイヤー 1" xmlns="http://www.w3.org/2000/svg" viewBox="0 0 300 80"><defs><style>.cls-1{fill:#a6afc9;}.cls-2{fill:none;stroke-width:1.6px;}.cls-2,.cls-3{stroke:#fff;stroke-miterlimit:10;}.cls-3{fill:#fff;stroke-width:1.8px;}</style></defs><rect class="cls-1" width="300" height="80"/><rect class="cls-2" x="4" y="4" width="292" height="72"/><line class="cls-2" x1="16" y1="4" x2="16" y2="76"/><line class="cls-2" x1="284" y1="76" x2="284" y2="4"/><path class="cls-3" d="M39.54,26.91,23.46,53.74H25.9L31,45.19H50.44l5.07,8.55H58l-16-26.83ZM49.78,44H31.7l9-15.39Z"/><polygon class="cls-3" points="94.42 51.31 71.54 26.91 68.44 26.91 68.44 53.74 70.83 53.74 70.83 28.82 93.98 53.74 96.81 53.74 96.81 26.91 94.42 26.91 94.42 51.31"/><polygon class="cls-3" points="107.34 28.1 120.81 28.1 120.81 53.74 123.2 53.74 123.2 28.1 136.68 28.1 136.68 26.91 107.34 26.91 107.34 28.1"/><rect class="cls-3" x="147.97" y="26.91" width="2.39" height="26.83"/><path class="cls-3" d="M197.32,40.32c0-6.32-2.9-13.86-16.69-13.86-14.21,0-16.33,8.69-16.33,13.86,0,9.07,5.65,13.86,16.33,13.86a21.85,21.85,0,0,0,10-2l5.21,3,1.68-.9-5.38-3C195.57,49,197.32,45.27,197.32,40.32ZM180.7,53c-9.3,0-14-4.26-14-12.66s4.71-12.66,14-12.66,14.23,4.26,14.23,12.66c0,4.6-1.46,8-4.33,10.09l-6.22-3.55-1.86.72,6.59,3.75A18.18,18.18,0,0,1,180.7,53Z"/><path class="cls-3" d="M235.42,46.25c0,4.53-3.74,6.73-11.44,6.73s-11.38-2.2-11.38-6.73V26.91h-2.39V46.36c0,5,5,7.82,13.77,7.82s13.83-2.85,13.83-7.82V26.91h-2.39Z"/><polygon class="cls-3" points="254.48 52.54 254.48 40.33 274.14 40.33 274.14 39.13 254.48 39.13 254.48 28.1 275.67 28.1 275.67 26.91 252.09 26.91 252.09 53.74 276.22 53.74 276.22 52.54 254.48 52.54"/></svg>