<svg id="レイヤー_1" data-name="レイヤー 1" xmlns="http://www.w3.org/2000/svg" viewBox="0 0 300 80"><defs><style>.cls-1{fill:#2e3192;}.cls-2{fill:#fff;}.cls-3,.cls-4{fill:none;stroke-miterlimit:10;}.cls-3{stroke:#fff;stroke-width:2px;}.cls-4{stroke:#2e3192;stroke-width:3px;}</style></defs><rect class="cls-1" width="300" height="80"/><polygon class="cls-2" points="297 57 297 77 277 77 297 57"/><line class="cls-3" x1="275" y1="76" x2="149.5" y2="76"/><polygon class="cls-2" points="3 23 3 3 23 3 3 23"/><line class="cls-3" x1="25" y1="4" x2="150.5" y2="4"/><line class="cls-3" x1="4" y1="40" x2="4" y2="25"/><line class="cls-3" x1="296" y1="40" x2="296" y2="55"/><line class="cls-4" x1="1.09" y1="27.7" x2="27.7" y2="1.09"/><line class="cls-4" x1="298.91" y1="52.3" x2="272.3" y2="78.91"/><polygon class="cls-2" points="137.4 57 149.85 23 132.93 23 120.48 57 137.4 57"/><polygon class="cls-2" points="213.85 57 226.3 23 209.37 23 196.92 57 213.85 57"/><path class="cls-2" d="M102.64,49l11.14-8.72L120.1,23H86.17L73.73,57h33.93l0-.07ZM91.11,30h19l-3.28,9h-19Z"/><polygon class="cls-2" points="262.13 31 256.32 23.04 239.05 23 226.7 56.93 226.77 56.93 237.58 49 243.4 56.96 260.67 57 273.02 23.07 272.95 23.07 262.13 31"/><path class="cls-2" d="M175.11,39l3.28-9h14.13L188,23H170.71l-11.33,8.94-6.07,16.58L158.82,57h17.26l11.33-8.94L190.73,39Zm-3.33,9,3.09-8.5,5.52,8.5Z"/><path class="cls-2" d="M39.42,23,27,57H60.91L73.35,23Zm18.5,16-2.55,7H40.59l2.55-7,2.55-7H60.47Z"/></svg>